#!OML:ASF F:\VICON\USERDATA\INSTALL\rory3\rory3.ASF
:FULLY-SPECIFIED
:DEGREES
4426
root -0.22523 17.6682 -2.25647 -183.939 173.755 -180.507
lowerback 7.76351 -0.593081 -0.811965
upperback -2.35561 -0.841609 0.547549
thorax -6.80846 -0.366116 1.14389
lowerneck -28.8523 -1.02688 -9.68844
upperneck 23.9229 3.00746 -0.436428
head 12.6535 0.327502 1.96879
rclavicle 1.02685e-014 -1.2275e-014
rhumerus 29.3146 -46.1593 -6.17078
rradius 87.1986
rwrist 32.1031
rhand -61.8383 11.1893
rfingers 7.12502
rthumb -33.9001 -15.6166
lclavicle 1.02685e-014 -1.2275e-014
lhumerus 26.6411 42.4745 1.93713
lradius 88.1875
lwrist -37.5756
lhand -51.8755 36.7194
lfingers 7.12502
lthumb -24.3882 1145.19
rfemur -13.1063 -6.70243 16.3802
rtibia 33.8796
rfoot -17.7527 -13.029
rtoes 9.7363
lfemur 7.13512 -0.687249 -13.615
ltibia 24.9106
lfoot -16.3064 -2.03287
ltoes -22.6076
4427
root -0.173708 17.6637 -2.30472 -183.886 173.509 -180.49
lowerback 7.76015 -0.617427 -0.830271
upperback -2.30748 -0.877554 0.523215
thorax -6.75465 -0.384174 1.13294
lowerneck -28.8786 -1.11196 -9.66747
upperneck 23.9247 2.86225 -0.373408
head 12.6649 0.274542 1.96338
rclavicle 9.11925e-015 -1.10822e-014
rhumerus 28.9023 -46.6685 -6.12513
rradius 85.6139
rwrist 31.0969
rhand -61.2308 10.544
rfingers 7.12502
rthumb -33.3227 -16.3875
lclavicle 9.11925e-015 -1.10822e-014
lhumerus 26.2695 42.59 1.95741
lradius 86.7344
lwrist -37.2884
lhand -51.5782 35.8364
lfingers 7.12502
lthumb -24.1031 1144.34
rfemur -13.2237 -6.71002 16.1724
rtibia 33.7483
rfoot -17.5997 -13.3239
rtoes 9.32195
lfemur 7.06205 -0.771926 -13.8585
ltibia 24.6372
lfoot -16.6164 -1.93835
ltoes -21.3287
4428
root -0.121045 17.6682 -2.35189 -183.826 173.185 -180.417
lowerback 7.75454 -0.676777 -0.908154
upperback -2.2596 -0.965958 0.505859
thorax -6.69752 -0.425414 1.16973
lowerneck -28.8508 -1.18505 -9.72375
upperneck 23.8686 2.75089 -0.286758
head 12.6401 0.235862 1.98452
rclavicle 1.69681e-014 7.40473e-015
rhumerus 28.5674 -47.1945 -6.11036
rradius 83.9229
rwrist 30.0158
rhand -60.5576 11.7766
rfingers 7.12502
rthumb -32.6825 -15.2901
lclavicle 1.69681e-014 7.40473e-015
lhumerus 25.8234 42.7108 1.98834
lradius 85.2461
lwrist -36.8324
lhand -51.0766 36.1249
lfingers 7.12502
lthumb -23.6221 1144.69
rfemur -13.3303 -6.69208 15.8972
rtibia 33.6739
rfoot -17.4915 -13.6783
rtoes 9.28388
lfemur 6.94924 -1.04893 -14.2247
ltibia 24.3145
lfoot -16.9231 -1.60573
ltoes -20.3747
4429
root -0.0694363 17.6713 -2.39777 -183.752 172.892 -180.236
lowerback 7.74002 -0.730791 -1.14193
upperback -2.2024 -1.06194 0.507038
thorax -6.62207 -0.463906 1.31422
lowerneck -28.8221 -1.2699 -9.8581
upperneck 23.7806 2.67955 -0.276857
head 12.6025 0.197503 1.99507
rclavicle -1.87355e-014 2.73329e-015
rhumerus 28.3717 -47.7264 -6.19265
rradius 82.1535
rwrist 28.7789
rhand -60.3543 9.79189
rfingers 7.12502
rthumb -32.489 -17.3147
lclavicle -1.87355e-014 2.73329e-015
lhumerus 25.2748 42.8488 1.97668
lradius 83.6631
lwrist -36.1938
lhand -50.7151 36.3936
lfingers 7.12502
lthumb -23.2753 1145.01
rfemur -13.4636 -6.67512 15.5005
rtibia 33.6434
rfoot -17.3789 -13.9932
rtoes 9.33256
lfemur 6.89689 -1.29786 -14.7155
ltibia 23.9673
lfoot -17.357 -1.09785
ltoes -20.6776
4430
root -0.0177 17.6619 -2.44426 -183.726 172.719 -180.188
lowerback 7.7579 -0.738597 -1.21494
upperback -2.1641 -1.07868 0.52705
thorax -6.58963 -0.469242 1.37829
lowerneck -28.7584 -1.3548 -10.0197
upperneck 23.8025 2.60126 -0.20117
head 12.6011 0.158353 2.03573
rclavicle 4.71492e-015 -1.08338e-014
rhumerus 28.0889 -48.3267 -6.16469
rradius 80.2832
rwrist 28.0423
rhand -59.707 8.14131
rfingers 7.12502
rthumb -31.8728 -19.0901
lclavicle 4.71492e-015 -1.08338e-014
lhumerus 24.8237 42.9986 1.96701
lradius 81.924
lwrist -35.431
lhand -50.3549 35.4909
lfingers 7.12502
lthumb -22.9297 1144.15
rfemur -13.6005 -6.5246 15.247
rtibia 33.6313
rfoot -17.3447 -14.273
rtoes 9.80729
lfemur 6.98391 -1.4005 -15.0637
ltibia 23.6219
lfoot -17.5486 -0.564237
ltoes -21.517
4431
root 0.0347601 17.6533 -2.49392 -183.669 172.54 -180.168
lowerback 7.86405 -0.765782 -1.24688
upperback -2.18978 -1.11829 0.54831
thorax -6.67552 -0.485863 1.42616
lowerneck -28.7493 -1.40606 -10.1565
upperneck 23.898 2.55166 -0.0651417
head 12.6362 0.139075 2.1027
rclavicle 8.26199e-016 -2.18663e-015
rhumerus 27.9153 -49.0199 -6.26397
rradius 78.3879
rwrist 28.0232
rhand -58.6779 6.49387
rfingers 7.12502
rthumb -30.8923 -20.9281
lclavicle 8.26199e-016 -2.18663e-015
lhumerus 24.372 43.0891 1.99112
lradius 80.1174
lwrist -34.6903
lhand -49.9109 34.7711
lfingers 7.12502
lthumb -22.5036 1143.48
rfemur -13.799 -6.31666 15.0321
rtibia 33.65
rfoot -17.3185 -14.6263
rtoes 9.92451
lfemur 7.00938 -1.47505 -15.3656
ltibia 23.2406
lfoot -17.5611 -0.23523
ltoes -22.1267
4432
root 0.0868789 17.6516 -2.54369 -183.577 172.399 -180.07
lowerback 7.88759 -0.756186 -1.32295
upperback -2.1548 -1.11694 0.495523
thorax -6.65165 -0.483706 1.41346
lowerneck -28.7505 -1.51296 -10.1261
upperneck 23.8292 2.38912 -0.0810844
head 12.6188 0.0712043 2.06062
rclavicle 2.34814e-015 -7.25564e-015
rhumerus 27.3372 -49.4411 -5.99552
rradius 76.31
rwrist 27.0979
rhand -58.6597 5.40619
rfingers 7.12502
rthumb -30.8749 -22.019
lclavicle 2.34814e-015 -7.25564e-015
lhumerus 24.0922 43.1895 2.09657
lradius 78.2615
lwrist -33.7979
lhand -49.3366 33.5384
lfingers 7.12502
lthumb -21.9522 1142.31
rfemur -14.015 -6.07381 14.743
rtibia 33.679
rfoot -17.4078 -14.9522
rtoes 10.3637
lfemur 6.96108 -1.59726 -15.758
ltibia 22.8461
lfoot -17.5913 0.0263732
ltoes -22.1452
4433
root 0.137859 17.6548 -2.59043 -183.526 172.316 -180.003
lowerback 7.8495 -0.713336 -1.36983
upperback -2.0812 -1.0678 0.430517
thorax -6.55387 -0.460573 1.36356
lowerneck -28.7927 -1.5937 -10.0186
upperneck 23.8443 2.24711 -0.122941
head 12.6424 0.0116434 2.00138
rclavicle 2.74975e-014 1.10822e-014
rhumerus 26.3591 -49.3281 -5.36453
rradius 74.1877
rwrist 24.2199
rhand -59.6412 6.20978
rfingers 7.12502
rthumb -31.8102 -21.0341
lclavicle 2.74975e-014 1.10822e-014
lhumerus 23.9125 43.2483 2.19425
lradius 76.3312
lwrist -32.5786
lhand -48.6397 31.7288
lfingers 7.12502
lthumb -21.283 1140.58
rfemur -14.1736 -5.79355 14.4995
rtibia 33.6729
rfoot -17.3852 -15.3392
rtoes 10.8406
lfemur 6.97204 -1.68068 -16.1277
ltibia 22.4803
lfoot -17.6644 0.309675
ltoes -21.4753
4434
root 0.188072 17.6555 -2.63767 -183.474 172.146 -179.91
lowerback 7.90183 -0.694383 -1.44894
upperback -2.04484 -1.0546 0.376969
thorax -6.54546 -0.45237 1.35075
lowerneck -28.9134 -1.64973 -10.0226
upperneck 23.963 2.1596 -0.0179939
head 12.715 -0.018195 2.02893
rclavicle 2.32764e-014 1.37161e-014
rhumerus 26.3866 -50.3491 -5.78012
rradius 72.2141
rwrist 24.1831
rhand -57.9765 6.70084
rfingers 7.12502
rthumb -30.2235 -20.8457
lclavicle 2.32764e-014 1.37161e-014
lhumerus 23.8939 43.4981 2.4977
lradius 74.3607
lwrist -31.8482
lhand -47.7385 32.2022
lfingers 7.12502
lthumb -20.4171 1141.15
rfemur -14.3226 -5.59839 14.2264
rtibia 33.645
rfoot -17.2007 -15.7876
rtoes 10.9114
lfemur 6.95806 -1.72123 -16.5067
ltibia 22.1447
lfoot -17.6628 0.696602
ltoes -22.3385
4435
root 0.239135 17.6541 -2.68531 -183.352 171.966 -179.863
lowerback 7.94964 -0.712583 -1.51282
upperback -2.06257 -1.08748 0.360762
thorax -6.58979 -0.46571 1.37518
lowerneck -28.8996 -1.68527 -10.0709
upperneck 23.9476 2.08071 0.136275
head 12.7064 -0.0338944 2.08204
rclavicle 3.94774e-015 1.07841e-014
rhumerus 26.3037 -51.0813 -5.98383
rradius 70.1287
rwrist 23.3375
rhand -56.7939 7.39299
rfingers 7.12502
rthumb -29.0946 -20.3545
lclavicle 3.94774e-015 1.07841e-014
lhumerus 23.81 43.9044 2.76406
lradius 72.3833
lwrist -31.5408
lhand -46.7611 32.7861
lfingers 7.12502
lthumb -19.4776 1141.83
rfemur -14.5374 -5.40661 14.003
rtibia 33.5714
rfoot -17.0146 -16.2231
rtoes 10.7373
lfemur 6.75143 -1.76322 -16.8154
ltibia 21.911
lfoot -17.6671 1.06849
ltoes -24.2821
4436
root 0.289514 17.6511 -2.72904 -183.24 171.895 -179.817
lowerback 7.85677 -0.698853 -1.63324
upperback -2.05879 -1.07906 0.377669
thorax -6.53053 -0.457138 1.45774
lowerneck -28.7073 -1.72023 -10.2259
upperneck 23.8755 2.0071 0.344105
head 12.64 -0.0457295 2.17241
rclavicle 3.91668e-015 1.49585e-014
rhumerus 25.9666 -51.4947 -5.81288
rradius 67.9178
rwrist 22.4196
rhand -56.1839 6.64955
rfingers 7.12502
rthumb -28.5119 -21.1971
lclavicle 3.91668e-015 1.49585e-014
lhumerus 23.5493 44.099 2.88722
lradius 70.3775
lwrist -30.6053
lhand -46.3395 32.7818
lfingers 7.12502
lthumb -19.0722 1141.87
rfemur -14.7429 -5.12612 13.7956
rtibia 33.4714
rfoot -16.8976 -16.635
rtoes 11.3186
lfemur 6.527 -1.62954 -17.0494
ltibia 21.7915
lfoot -17.7079 1.10221
ltoes -25.1153
4437
root 0.337731 17.6518 -2.77712 -183.262 171.773 -179.956
lowerback 7.89134 -0.712791 -1.59797
upperback -2.01398 -1.08895 0.462022
thorax -6.50153 -0.462223 1.52761
lowerneck -28.4875 -1.72653 -10.2594
upperneck 23.7225 1.97482 0.349678
head 12.5391 -0.0537665 2.17067
rclavicle 4.53664e-014 -2.38542e-015
rhumerus 25.9557 -52.0098 -6.01359
rradius 65.6747
rwrist 21.7951
rhand -55.502 6.07265
rfingers 7.12502
rthumb -27.8602 -21.8814
lclavicle 4.53664e-014 -2.38542e-015
lhumerus 23.2292 44.2319 2.9962
lradius 68.3433
lwrist -29.5419
lhand -46.1866 33.4218
lfingers 7.12502
lthumb -18.9251 1142.52
rfemur -14.8319 -4.78207 13.804
rtibia 33.3517
rfoot -16.8002 -17.2242
rtoes 11.8165
lfemur 6.4267 -1.54335 -17.05
ltibia 21.7406
lfoot -17.8955 0.832061
ltoes -23.7309
